# xmcd
#
# Track frame offsets:
#	187
#	23302
#	48945
#	70587
#	90342
#	111437
#	130860
#	155800
#	179542
#	200227
#
# Disc length: 2990 seconds
#
# Revision: 1
# Processed by: cddbd v1.5.1PL0 Copyright (c) Steve Scherf et al.
# Submitted via: CDex 1.50Beta5
#
DISCID=820bac0a
DTITLE=稲垣潤一 - PRIMARY
DYEAR=1996
DGENRE=
TTITLE0=天使さえ知らない
TTITLE1=雨の朝と風の夜に
TTITLE2=ジョパンニの恋人
TTITLE3=神様のミステイク
TTITLE4=Lonely Private Eye
TTITLE5=青い罪
TTITLE6=602号室の吟遊詩人
TTITLE7=真夏の果てまで
TTITLE8=千の悲しみを超えて
TTITLE9=夏が行くよ
EXTD=
EXTT0=
EXTT1=
EXTT2=
EXTT3=
EXTT4=
EXTT5=
EXTT6=
EXTT7=
EXTT8=
EXTT9=
PLAYORDER=
